<?xml version="1.0" encoding="utf-8"?>
<!-- Generator: Adobe Illustrator 24.1.3, SVG Export Plug-In . SVG Version: 6.00 Build 0)  -->
<svg version="1.1" id="Capa_1" xmlns="http://www.w3.org/2000/svg" xmlns:xlink="http://www.w3.org/1999/xlink" x="0px" y="0px"
	 viewBox="0 0 31.9 32" style="enable-background:new 0 0 31.9 32;" xml:space="preserve">
<path d="M21.5,11.6c-0.6,0-1.1-0.5-1.1-1.1c0-2.4-2-4.4-4.4-4.4s-4.4,2-4.4,4.4c0,0.6-0.5,1.1-1.1,1.1s-1.1,0.5-1.1,1.1
	c0,0.6,0.5,1.1,1.1,1.1h11c0.6,0,1.1-0.5,1.1-1.1C22.6,12.1,22.1,11.6,21.5,11.6z M16,25.9l3.9-9.9H12L16,25.9z M27,0H5
	C2.2,0,0,2.2,0,5v22c0,2.8,2.2,5,5,5h22c2.8,0,5-2.2,5-5V5C32,2.2,29.7,0,27,0z M22.3,15.9L18,26.8c-0.2,0.6-0.7,1-1.2,1.2
	c-0.3,0.1-0.6,0.1-0.9,0.1c-0.3,0-0.6-0.1-0.8-0.2c-0.5-0.2-1-0.6-1.2-1.2L9.6,15.9c-1.4-0.4-2.4-1.7-2.4-3.2c0-1.4,1-2.7,2.3-3.1
	c0.4-3.3,3.2-5.7,6.5-5.7c3.3,0,6.1,2.5,6.5,5.7c1.3,0.4,2.3,1.7,2.3,3.1C24.8,14.2,23.7,15.5,22.3,15.9z"/>
</svg>
