<?xml version="1.0" encoding="utf-8"?>
<!-- Generator: Adobe Illustrator 24.1.3, SVG Export Plug-In . SVG Version: 6.00 Build 0)  -->
<svg version="1.1" id="Capa_1" xmlns="http://www.w3.org/2000/svg" xmlns:xlink="http://www.w3.org/1999/xlink" x="0px" y="0px"
	 viewBox="0 0 31.9 32" style="enable-background:new 0 0 31.9 32;" xml:space="preserve">
<style type="text/css">
	.st0{fill:#FFFFFF;}
	.st1{fill:#580A5D;}
</style>
<rect class="st0" width="32" height="32"/>
<g>
	<g>
		<path class="st1" d="M15.9,28.1c-0.3,0-0.6-0.1-0.8-0.2c-0.5-0.2-1-0.6-1.2-1.2L9.4,15.3c-0.2-0.6,0.1-1.2,0.6-1.4
			c0.6-0.2,1.2,0.1,1.4,0.6L16,25.9l4.5-11.4c0.2-0.6,0.9-0.8,1.4-0.6c0.6,0.2,0.8,0.9,0.6,1.4L18,26.8c-0.2,0.6-0.7,1-1.2,1.2
			C16.5,28.1,16.2,28.1,15.9,28.1z"/>
	</g>
	<g>
		<path class="st1" d="M21.5,11.6c-0.6,0-1.1-0.5-1.1-1.1c0-2.4-2-4.4-4.4-4.4s-4.4,2-4.4,4.4c0,0.6-0.5,1.1-1.1,1.1
			s-1.1-0.5-1.1-1.1c0-3.7,3-6.6,6.6-6.6s6.6,3,6.6,6.6C22.6,11.1,22.1,11.6,21.5,11.6z"/>
	</g>
	<g>
		<path class="st1" d="M21.5,16h-11c-1.8,0-3.3-1.5-3.3-3.3s1.5-3.3,3.3-3.3c0.6,0,1.1,0.5,1.1,1.1s-0.5,1.1-1.1,1.1
			c-0.6,0-1.1,0.5-1.1,1.1c0,0.6,0.5,1.1,1.1,1.1h11c0.6,0,1.1-0.5,1.1-1.1c0-0.6-0.5-1.1-1.1-1.1c-0.6,0-1.1-0.5-1.1-1.1
			s0.5-1.1,1.1-1.1c1.8,0,3.3,1.5,3.3,3.3S23.3,16,21.5,16z"/>
	</g>
</g>
</svg>
