<?xml version="1.0" encoding="utf-8"?>
<!-- Generator: Adobe Illustrator 24.1.3, SVG Export Plug-In . SVG Version: 6.00 Build 0)  -->
<svg version="1.1" id="Capa_1" xmlns="http://www.w3.org/2000/svg" xmlns:xlink="http://www.w3.org/1999/xlink" x="0px" y="0px"
	 viewBox="0 0 312.4 102.5" style="enable-background:new 0 0 312.4 102.5;" xml:space="preserve">
<style type="text/css">
	.st0{fill:#7A2D89;}
	.st1{fill:#E76C6A;}
</style>
<g>
	<path class="st0" d="M55.6,41.8c-1-6.6-3.9-12.2-8.9-16.6c-4.6-4-9.9-6-15.9-6.5c-6.9-0.5-13.1,1.3-18.5,5.7
		c-0.2,0.2-0.4,0.3-0.6,0.5c-0.7-1.5-1.5-2.9-2.1-4.3c-0.2-0.4-0.5-0.6-0.9-0.6c-1,0-2,0-3,0H0v71.4h14.1V69.8
		c1.2,0.7,2.4,1.4,3.5,1.9c5.1,2.4,10.4,3,15.9,2c8.2-1.5,14.6-5.8,18.8-13.1C55.7,54.8,56.6,48.4,55.6,41.8z M27.1,60.7
		c-8.2-0.2-14.2-6.4-14.1-14.5c0.2-8.3,6.3-14.4,14.4-14.2c8.3,0.1,14.3,6.3,14.2,14.6C41.4,54.9,35.3,60.9,27.1,60.7z"/>
	<polygon class="st1" points="87.6,0 84.9,0 72.4,13.3 87.6,13.3 	"/>
	<polygon class="st1" points="109.9,0 107.3,0 94.7,13.3 109.9,13.3 	"/>
	<path class="st0" d="M285.3,43c-0.6-6.3-3.1-11.9-7.6-16.5c-5.4-5.4-12-7.9-19.6-7.9c-6.7,0-12.7,2.1-17.7,6.5
		c-6.4,5.6-9.3,12.9-9.2,21.3c0,7.2,2.3,13.7,7.2,19c6.2,6.7,14,9.4,22.9,8.5c10.1-1,17.4-6.3,21.8-15.5c0.5-1,0.8-2,1.2-3
		c-0.2,0-0.3-0.1-0.4-0.1c-4.7,0-9.3,0-14,0c-0.3,0-0.6,0.2-0.8,0.5c-0.8,0.9-1.5,1.9-2.4,2.7c-2.7,2.3-6,3.1-9.5,2.9
		c-5-0.3-8.7-2.6-10.7-7.3c-0.5-1.2-0.8-2.5-1.2-3.8h39.8c0.1-0.3,0.1-0.6,0.1-0.9C285.3,47.3,285.5,45.1,285.3,43z M246,40.7
		c1.1-5,5-9.5,11.4-9.8c7.7-0.4,12.2,4.1,13.9,9.8H246z"/>
	<path class="st0" d="M219.9,32c-1.6-5.1-4.6-9.2-9.6-11.3c-7.8-3.2-15.1-2.1-22,2.6c-0.7,0.5-1.4,1.1-2.2,1.7V1.3H172v71.2h14.1v-1
		c0-8.7,0-17.3,0-26c0-1.6,0.2-3.1,0.4-4.7c1-5.8,5.3-9.4,11.1-9.5c5-0.1,8,2.3,8.9,7.2c0.3,1.7,0.4,3.4,0.4,5c0,9.3,0,18.7,0,28
		v0.9h14.1c0-0.2,0-0.4,0-0.6c0-10.4,0-20.9,0-31.3C221.2,37.6,220.8,34.7,219.9,32z"/>
	<path class="st0" d="M119.6,42.8c-1-7.9-4.6-14.4-11.2-18.9c-7.2-5-15.2-6.3-23.7-4.5C77.2,21,71.3,25,67.2,31.6
		c-3.5,5.5-4.6,11.7-3.9,18.1c0.9,8,4.6,14.5,11.2,19.2c6.4,4.5,13.6,5.9,21.3,4.9c14.1-1.9,24-13.2,24-27.9
		C119.8,45.2,119.7,44,119.6,42.8z M100.8,57.4c-2.6,2.3-5.6,3.3-9,3.4c-4.4,0.1-8.2-1.4-11.1-4.8c-2.2-2.7-3.2-5.9-3.2-9.4
		c0-3.6,0.9-7,3.3-9.8c2.7-3.3,6.3-4.7,10.5-4.7c4.8,0,8.9,1.7,11.7,5.8c1.8,2.6,2.5,5.6,2.5,8.7C105.3,50.8,104,54.5,100.8,57.4z"
		/>
	<path class="st0" d="M160.8,59.9c-2,0-4,0-6,0c-4.1-0.1-6.7-2.2-7.4-5.8c-0.2-0.8-0.2-1.7-0.2-2.5c0-6.4,0-12.8,0-19.2v-0.9h14.2
		V20.1H147V6.5h0v0h-2.7l-20.7,21.9c0,0,0,2.5,0,3.1v0h0v0h9.4v1c0,6.9,0,13.9,0,20.8c0,1.3,0,2.6,0.2,3.9c0.7,5.5,3.1,9.9,8.1,12.8
		c3,1.7,6.2,2.4,9.6,2.5c3.4,0.1,6.9,0,10.3,0c0.2,0,0.3,0,0.5,0V59.9C161.4,59.9,161.1,59.9,160.8,59.9z"/>
	<g>
		<g>
			<g>
				<path class="st1" d="M139.6,91.4h3v10.8h-3v-4.1h-3.2v4.1h-3V91.4h3v3.9h3.2V91.4z"/>
				<path class="st1" d="M147.6,99.6h4.1v2.6h-7V91.4h6.9V94h-3.9v1.6h3.5V98h-3.5V99.6z"/>
				<path class="st1" d="M156.3,99.5h3.8v2.7h-6.8V91.4h3V99.5z"/>
				<path class="st1" d="M168.6,102.2l-0.6-1.7h-3.8l-0.6,1.7h-3.2l4.2-10.8h2.9l4.3,10.8H168.6z M167.3,98.1l-1.2-3.3l-1.2,3.3
					H167.3z"/>
				<path class="st1" d="M177.3,91.4c1.1,0,2,0.2,2.9,0.7c0.8,0.5,1.5,1.1,2,1.9c0.5,0.8,0.7,1.7,0.7,2.8c0,1-0.2,2-0.7,2.8
					c-0.5,0.8-1.1,1.5-2,1.9c-0.8,0.5-1.8,0.7-2.9,0.7h-4.4V91.4H177.3z M177.1,99.5c0.8,0,1.4-0.2,1.9-0.7c0.5-0.5,0.7-1.1,0.7-1.9
					c0-0.8-0.2-1.4-0.7-1.9c-0.5-0.5-1.1-0.7-1.9-0.7h-1.2v5.3H177.1z"/>
				<path class="st1" d="M187.3,99.6h4.1v2.6h-7V91.4h6.9V94h-3.9v1.6h3.5V98h-3.5V99.6z"/>
				<path class="st1" d="M198.9,102.2l-1.7-3.3H196v3.3h-3V91.4h4.7c1.2,0,2.1,0.4,2.9,1.1s1.1,1.6,1.1,2.7c0,0.7-0.2,1.2-0.5,1.8
					c-0.3,0.5-0.7,1-1.3,1.3l2.1,3.9H198.9z M196,94.1v2.3h1.3c0.4,0,0.7-0.1,1-0.3c0.2-0.2,0.3-0.5,0.3-0.8c0-0.3-0.1-0.6-0.3-0.8
					c-0.2-0.2-0.6-0.3-1-0.3H196z"/>
				<path class="st1" d="M208.7,102.5c-1.1,0-2.2-0.2-3.1-0.7c-0.9-0.5-1.6-1.2-2.1-2s-0.8-1.8-0.8-2.9c0-1.1,0.3-2.1,0.8-2.9
					c0.5-0.9,1.2-1.5,2.1-2c0.9-0.5,1.9-0.7,3.1-0.7c0.9,0,1.6,0.1,2.4,0.4c0.7,0.3,1.4,0.7,1.9,1.2c0.5,0.5,0.9,1.1,1.2,1.8
					c0.3,0.7,0.4,1.5,0.4,2.3c0,0.8-0.1,1.6-0.4,2.3c-0.3,0.7-0.7,1.3-1.2,1.8c-0.5,0.5-1.1,0.9-1.9,1.2
					C210.4,102.3,209.6,102.5,208.7,102.5z M206.7,98.9c0.5,0.5,1.2,0.8,2,0.8c0.8,0,1.5-0.3,2-0.8s0.8-1.2,0.8-2.1
					c0-0.8-0.3-1.5-0.8-2.1s-1.2-0.8-2-0.8c-0.8,0-1.5,0.3-2,0.8c-0.5,0.5-0.8,1.2-0.8,2.1C205.9,97.7,206.2,98.3,206.7,98.9z"/>
				<path class="st1" d="M220,102.5c-1.3,0-2.4-0.3-3.2-1c-0.8-0.7-1.2-1.6-1.2-2.7h3.1c0,0.4,0.1,0.6,0.4,0.8
					c0.2,0.2,0.5,0.3,0.9,0.3c0.3,0,0.6-0.1,0.9-0.2c0.2-0.2,0.4-0.4,0.4-0.7c0-0.1,0-0.2-0.1-0.3c0-0.1-0.1-0.2-0.2-0.2
					c-0.1-0.1-0.2-0.1-0.3-0.2c-0.1,0-0.2-0.1-0.4-0.2c-0.2-0.1-0.3-0.1-0.4-0.1c-0.1,0-0.3-0.1-0.5-0.1c-0.9-0.2-1.5-0.4-1.9-0.6
					c-1-0.5-1.5-1.2-1.7-2.2c0-0.2,0-0.3,0-0.5c0-1.1,0.4-1.9,1.1-2.5c0.7-0.6,1.7-0.9,3-0.9c1.3,0,2.3,0.3,3,0.9
					c0.7,0.6,1.1,1.5,1.1,2.6h-3c0-0.3-0.1-0.6-0.3-0.7c-0.2-0.2-0.5-0.3-0.8-0.3c-0.3,0-0.5,0.1-0.7,0.2c-0.2,0.1-0.3,0.3-0.3,0.5
					c0,0.1,0,0.2,0.1,0.3c0,0.1,0.1,0.2,0.2,0.2c0.1,0.1,0.2,0.1,0.3,0.2c0.1,0,0.2,0.1,0.4,0.2c0.2,0.1,0.3,0.1,0.4,0.1
					c0.1,0,0.3,0.1,0.5,0.1c0.2,0.1,0.4,0.1,0.5,0.1c0.1,0,0.3,0.1,0.5,0.2c0.2,0.1,0.4,0.1,0.6,0.2c0.1,0.1,0.3,0.1,0.5,0.3
					s0.4,0.2,0.5,0.3c0.1,0.1,0.3,0.2,0.4,0.4s0.2,0.3,0.3,0.5c0.1,0.2,0.1,0.4,0.2,0.6c0.1,0.2,0.1,0.5,0.1,0.8
					c0,1.1-0.4,2-1.2,2.6C222.3,102.1,221.2,102.5,220,102.5z"/>
				<path class="st1" d="M233.5,91.4c1.1,0,2,0.2,2.9,0.7c0.8,0.5,1.5,1.1,2,1.9c0.5,0.8,0.7,1.7,0.7,2.8c0,1-0.2,2-0.7,2.8
					c-0.5,0.8-1.1,1.5-2,1.9c-0.8,0.5-1.8,0.7-2.9,0.7h-4.4V91.4H233.5z M233.4,99.5c0.8,0,1.4-0.2,1.9-0.7c0.5-0.5,0.7-1.1,0.7-1.9
					c0-0.8-0.2-1.4-0.7-1.9c-0.5-0.5-1.1-0.7-1.9-0.7h-1.2v5.3H233.4z"/>
				<path class="st1" d="M243.5,99.6h4.1v2.6h-7V91.4h6.9V94h-3.9v1.6h3.5V98h-3.5V99.6z"/>
				<path class="st1" d="M253.1,102.5c-1.3,0-2.4-0.3-3.2-1c-0.8-0.7-1.2-1.6-1.2-2.7h3.1c0,0.4,0.1,0.6,0.4,0.8
					c0.2,0.2,0.5,0.3,0.9,0.3c0.3,0,0.6-0.1,0.9-0.2c0.2-0.2,0.4-0.4,0.4-0.7c0-0.1,0-0.2-0.1-0.3c0-0.1-0.1-0.2-0.2-0.2
					c-0.1-0.1-0.2-0.1-0.3-0.2c-0.1,0-0.2-0.1-0.4-0.2c-0.2-0.1-0.3-0.1-0.4-0.1c-0.1,0-0.3-0.1-0.5-0.1c-0.9-0.2-1.5-0.4-1.9-0.6
					c-1-0.5-1.5-1.2-1.7-2.2c0-0.2,0-0.3,0-0.5c0-1.1,0.4-1.9,1.1-2.5c0.7-0.6,1.7-0.9,3-0.9c1.3,0,2.3,0.3,3,0.9
					c0.7,0.6,1.1,1.5,1.1,2.6h-3c0-0.3-0.1-0.6-0.3-0.7c-0.2-0.2-0.5-0.3-0.8-0.3c-0.3,0-0.5,0.1-0.7,0.2c-0.2,0.1-0.3,0.3-0.3,0.5
					c0,0.1,0,0.2,0.1,0.3c0,0.1,0.1,0.2,0.2,0.2c0.1,0.1,0.2,0.1,0.3,0.2c0.1,0,0.2,0.1,0.4,0.2c0.2,0.1,0.3,0.1,0.4,0.1
					c0.1,0,0.3,0.1,0.5,0.1c0.2,0.1,0.4,0.1,0.5,0.1c0.1,0,0.3,0.1,0.5,0.2c0.2,0.1,0.4,0.1,0.6,0.2c0.1,0.1,0.3,0.1,0.5,0.3
					c0.2,0.1,0.4,0.2,0.5,0.3c0.1,0.1,0.3,0.2,0.4,0.4s0.2,0.3,0.3,0.5c0.1,0.2,0.1,0.4,0.2,0.6c0.1,0.2,0.1,0.5,0.1,0.8
					c0,1.1-0.4,2-1.2,2.6C255.4,102.1,254.4,102.5,253.1,102.5z"/>
				<path class="st1" d="M263.3,91.4c1.1,0,2,0.2,2.9,0.7c0.8,0.5,1.5,1.1,2,1.9c0.5,0.8,0.7,1.7,0.7,2.8c0,1-0.2,2-0.7,2.8
					c-0.5,0.8-1.1,1.5-2,1.9c-0.8,0.5-1.8,0.7-2.9,0.7H259V91.4H263.3z M263.2,99.5c0.8,0,1.4-0.2,1.9-0.7c0.5-0.5,0.7-1.1,0.7-1.9
					c0-0.8-0.2-1.4-0.7-1.9c-0.5-0.5-1.1-0.7-1.9-0.7h-1.2v5.3H263.2z"/>
				<path class="st1" d="M273.3,99.6h4.1v2.6h-7V91.4h6.9V94h-3.9v1.6h3.5V98h-3.5V99.6z"/>
				<path class="st1" d="M281.9,92h4.3v10.2h-2.7v-7.9h-1.5V92z"/>
				<path class="st1" d="M291.6,91.7c1.2,0,2.2,0.4,2.9,1.1c0.8,0.7,1.1,1.6,1.1,2.7c0,0.5-0.1,1.1-0.3,1.6
					c-0.2,0.6-0.5,1.2-0.9,1.9l-1.9,3.2h-2.9c0.2-0.4,0.6-0.9,1-1.7c0.5-0.8,0.8-1.3,1-1.7c-0.2,0-0.4,0-0.7,0c-1,0-1.9-0.3-2.5-0.9
					s-1-1.4-1-2.4c0-1.1,0.4-2,1.1-2.7C289.4,92.1,290.4,91.7,291.6,91.7z M290.5,96.6c0.3,0.3,0.6,0.4,1.1,0.4s0.8-0.1,1.1-0.4
					c0.3-0.3,0.4-0.6,0.4-1.1c0-0.4-0.1-0.8-0.4-1.1c-0.3-0.3-0.6-0.4-1.1-0.4c-0.4,0-0.8,0.1-1.1,0.4c-0.3,0.3-0.4,0.6-0.4,1.1
					C290.1,95.9,290.2,96.3,290.5,96.6z"/>
				<path class="st1" d="M296.5,92h7.8v0.4l-3.9,9.8h-2.9l3.1-7.8h-4.2V92z"/>
				<path class="st1" d="M312.4,98.1v2.3h-0.9v1.8h-2.6v-1.8H304v-0.5l3.3-7.9h2.7l-2.5,6.1h1.6l0.6-2.3h1.8v2.3H312.4z"/>
			</g>
		</g>
	</g>
</g>
</svg>
